<svg width="151" height="100" viewBox="0 0 151 100" fill="none" xmlns="http://www.w3.org/2000/svg">
<path d="M32.87 32.5994C36.0924 32.1604 38.7658 32.7851 40.8903 34.4735C43.009 36.1206 44.2886 38.5552 44.7289 41.7774C44.7854 42.1905 44.84 42.8984 44.8929 43.9011L45.1293 63.1834C45.1527 66.1257 44.5234 68.7573 43.2414 71.0779C42.0007 73.393 40.2416 75.1475 37.964 76.3414C37.8044 76.4052 37.7152 76.5225 37.6965 76.6934L37.7966 82.0449C37.7835 82.2571 37.7028 82.4364 37.5545 82.5828C37.4531 82.7649 37.2992 82.8701 37.0926 82.8982L30.0281 83.8605C29.8215 83.8886 29.645 83.8285 29.4985 83.6802C29.3576 83.5731 29.2937 83.4135 29.3068 83.2013L29.2687 77.8414C29.2461 77.6762 29.1493 77.5841 28.9784 77.5653C27.0177 77.075 25.3818 76.0354 24.0705 74.4467C22.8006 72.8524 22.0047 70.8778 21.683 68.5231C21.5588 67.6143 21.5041 66.9064 21.519 66.3994L21.2206 47.1256C21.1557 43.2632 22.1839 40.0092 24.3052 37.3638C26.4622 34.6715 29.3171 33.0833 32.87 32.5994ZM30.0119 66.1894C29.9988 66.4015 30.0148 66.6729 30.06 67.0034C30.2068 68.0774 30.5704 68.8905 31.1508 69.4427C31.7726 69.9892 32.5172 70.2033 33.3848 70.0851C34.4176 69.9445 35.2109 69.4366 35.7646 68.5617C36.3597 67.6811 36.6523 66.5893 36.6426 65.2862L36.4 44.1112C36.4131 43.899 36.3971 43.6277 36.3519 43.2972C36.2051 42.2231 35.8209 41.4128 35.1991 40.8663C34.6187 40.3142 33.874 40.1 32.9651 40.2238C31.9736 40.3589 31.1803 40.8667 30.5853 41.7473C29.9902 42.6278 29.6976 43.7197 29.7073 45.0228L30.0119 66.1894ZM64.8719 41.2428C64.885 41.0306 64.9451 40.8541 65.0521 40.7133C65.1947 40.5256 65.3694 40.4176 65.5759 40.3895L72.6404 39.4272C72.847 39.399 73.0235 39.4592 73.1701 39.6075C73.3109 39.7146 73.3748 39.8742 73.3617 40.0864L73.7929 70.956C73.7799 71.1682 73.702 71.3681 73.5593 71.5559C73.4523 71.6967 73.2955 71.7812 73.089 71.8093L66.0245 72.7716C65.8179 72.7997 65.6442 72.7603 65.5033 72.6532C65.3568 72.5049 65.2901 72.3246 65.3031 72.1124L65.2831 71.0421C65.3075 70.9126 65.2756 70.8328 65.1873 70.8027C65.099 70.7727 65.022 70.8252 64.9563 70.9604C63.8489 72.7103 62.0557 73.754 59.577 74.0917C57.4287 74.3843 55.591 74.0245 54.064 73.0122C52.5313 71.9586 51.5928 70.1718 51.2484 67.6519C51.1976 67.2801 51.1571 66.6754 51.1268 65.838L50.8049 43.1589C50.818 42.9467 50.878 42.7702 50.985 42.6294C51.1277 42.4417 51.3023 42.3337 51.5089 42.3056L58.5734 41.3433C58.78 41.3152 58.9565 41.3753 59.103 41.5236C59.2439 41.6307 59.3078 41.7903 59.2947 42.0025L59.6019 62.7268C59.5888 62.939 59.6105 63.2517 59.667 63.6648C59.7912 64.5736 60.0731 65.2505 60.5126 65.6956C60.9879 66.0938 61.5973 66.2422 62.3409 66.1409C63.2498 66.0171 63.9454 65.5647 64.4279 64.7836C64.9103 64.0025 65.1522 63.0018 65.1538 61.7812L64.8719 41.2428ZM102.02 30.5651C102.007 30.7773 101.929 30.9773 101.786 31.165C101.679 31.3058 101.522 31.3903 101.316 31.4184L88.798 33.1235C88.5914 33.1517 88.5023 33.269 88.5305 33.4756L88.6291 43.435C88.6573 43.6415 88.754 43.7335 88.9193 43.711L96.1077 42.7319C96.3143 42.7037 96.4908 42.7638 96.6374 42.9122C96.7782 43.0193 96.8421 43.1789 96.829 43.391L96.9068 49.503C96.8937 49.7152 96.8158 49.9152 96.6732 50.1029C96.5662 50.2437 96.4094 50.3282 96.2028 50.3563L89.0764 51.3271C88.8285 51.3608 88.7186 51.481 88.7469 51.6875L89.0137 68.8827C89.0006 69.0949 88.9227 69.2949 88.78 69.4826C88.6317 69.629 88.4543 69.7163 88.2477 69.7445L81.2452 70.6983C81.0386 70.7265 80.8649 70.687 80.724 70.58C80.5775 70.4316 80.5108 70.2513 80.5239 70.0391L79.9429 27.4498C79.956 27.2376 80.016 27.0611 80.123 26.9203C80.2657 26.7325 80.4403 26.6246 80.6469 26.5964L101.221 23.794C101.427 23.7658 101.604 23.826 101.75 23.9743C101.891 24.0814 101.955 24.241 101.942 24.4532L102.02 30.5651ZM111.117 30.5252C109.877 30.6941 108.812 30.4395 107.919 29.7615C107.027 29.0835 106.499 28.1455 106.336 26.9475C106.11 25.2951 106.443 23.8822 107.334 22.7087C108.22 21.494 109.428 20.7825 110.956 20.5743C112.237 20.3998 113.3 20.6338 114.145 21.276C114.99 21.9183 115.498 22.8591 115.667 24.0985C115.882 25.6683 115.528 27.084 114.606 28.3457C113.726 29.6018 112.563 30.3283 111.117 30.5252ZM108.152 67.0332C107.946 67.0613 107.772 67.0218 107.631 66.9148C107.485 66.7664 107.418 66.5862 107.431 66.374L107 35.5044C107.013 35.2922 107.073 35.1157 107.18 34.9749C107.323 34.7871 107.497 34.6792 107.704 34.651L114.768 33.6887C114.975 33.6606 115.152 33.7207 115.298 33.8691C115.439 33.9761 115.503 34.1357 115.49 34.3479L115.921 65.2176C115.908 65.4297 115.83 65.6297 115.687 65.8174C115.58 65.9583 115.424 66.0427 115.217 66.0709L108.152 67.0332ZM136.012 36.2865C135.999 36.4986 135.921 36.6986 135.778 36.8864C135.671 37.0272 135.514 37.1117 135.308 37.1398L131.899 37.6041C131.817 37.6153 131.74 37.6679 131.668 37.7617C131.633 37.8087 131.621 37.8735 131.632 37.9561L131.85 52.9487C131.837 53.1609 131.856 53.4529 131.907 53.8247C132.025 54.6922 132.293 55.2659 132.71 55.5457C133.168 55.8199 133.766 55.8857 134.504 55.7431L134.938 55.684C135.145 55.6559 135.321 55.716 135.468 55.8644C135.609 55.9714 135.673 56.131 135.66 56.3432L135.746 62.5171C135.733 62.7293 135.655 62.9293 135.512 63.117C135.405 63.2578 135.248 63.3423 135.042 63.3704L132.625 63.6996C129.981 64.0598 127.924 63.9403 126.453 63.3411C124.977 62.7006 124.086 61.2649 123.781 59.0342C123.742 58.745 123.713 58.223 123.694 57.4682L123.452 39.0703C123.424 38.8638 123.327 38.7717 123.162 38.7943L121.179 39.0644C120.972 39.0925 120.798 39.053 120.658 38.946C120.511 38.7976 120.444 38.6174 120.457 38.4052L120.38 33.6818C120.393 33.4696 120.453 33.2931 120.56 33.1523C120.703 32.9646 120.877 32.8566 121.084 32.8285L123.067 32.5584C123.274 32.5302 123.363 32.4129 123.335 32.2063L123.262 25.21C123.275 24.9978 123.335 24.8213 123.442 24.6805C123.585 24.4927 123.76 24.3848 123.966 24.3566L130.721 23.4366C130.927 23.4084 131.104 23.4685 131.25 23.6169C131.391 23.7239 131.455 23.8836 131.442 24.0957L131.514 31.0921C131.543 31.2986 131.66 31.3879 131.867 31.3597L135.213 30.9039C135.42 30.8758 135.596 30.9359 135.743 31.0842C135.883 31.1913 135.947 31.3509 135.934 31.5631L136.012 36.2865Z" fill="#BD4ADA"/>
<path d="M31.4677 32.5994C34.6901 32.1604 37.3635 32.7851 39.4879 34.4735C41.6067 36.1206 42.8862 38.5552 43.3266 41.7774C43.383 42.1905 43.4377 42.8984 43.4906 43.9011L43.727 63.1834C43.7503 66.1257 43.121 68.7573 41.839 71.0779C40.5984 73.393 38.8392 75.1475 36.5617 76.3414C36.402 76.4052 36.3129 76.5225 36.2941 76.6934L36.3942 82.0449C36.3812 82.2571 36.3005 82.4364 36.1521 82.5828C36.0508 82.7649 35.8968 82.8701 35.6903 82.8982L28.6258 83.8605C28.4192 83.8886 28.2426 83.8285 28.0961 83.6802C27.9552 83.5731 27.8914 83.4135 27.9044 83.2013L27.8663 77.8414C27.8437 77.6762 27.747 77.5841 27.5761 77.5653C25.6154 77.075 23.9794 76.0354 22.6682 74.4467C21.3983 72.8524 20.6024 70.8778 20.2806 68.5231C20.1564 67.6143 20.1018 66.9064 20.1166 66.3994L19.8183 47.1256C19.7533 43.2632 20.7815 40.0092 22.9028 37.3638C25.0598 34.6715 27.9148 33.0833 31.4677 32.5994ZM28.6095 66.1894C28.5964 66.4015 28.6125 66.6729 28.6576 67.0034C28.8044 68.0774 29.168 68.8905 29.7485 69.4427C30.3702 69.9892 31.1149 70.2033 31.9824 70.0851C33.0153 69.9445 33.8085 69.4366 34.3623 68.5617C34.9573 67.6811 35.25 66.5893 35.2402 65.2862L34.9977 44.1112C35.0108 43.899 34.9947 43.6277 34.9496 43.2972C34.8028 42.2231 34.4185 41.4128 33.7968 40.8663C33.2163 40.3142 32.4717 40.1 31.5628 40.2238C30.5713 40.3589 29.778 40.8667 29.1829 41.7473C28.5879 42.6278 28.2952 43.7197 28.305 45.0228L28.6095 66.1894ZM63.4696 41.2428C63.4827 41.0306 63.5427 40.8541 63.6497 40.7133C63.7924 40.5256 63.967 40.4176 64.1736 40.3895L71.2381 39.4272C71.4447 39.399 71.6212 39.4592 71.7677 39.6075C71.9086 39.7146 71.9725 39.8742 71.9594 40.0864L72.3906 70.956C72.3775 71.1682 72.2996 71.3681 72.157 71.5559C72.05 71.6967 71.8932 71.7812 71.6866 71.8093L64.6221 72.7716C64.4156 72.7997 64.2418 72.7603 64.101 72.6532C63.9544 72.5049 63.8877 72.3246 63.9008 72.1124L63.8808 71.0421C63.9052 70.9126 63.8732 70.8328 63.7849 70.8027C63.6967 70.7727 63.6197 70.8252 63.554 70.9604C62.4465 72.7103 60.6534 73.754 58.1746 74.0917C56.0263 74.3843 54.1887 74.0245 52.6616 73.0122C51.129 71.9586 50.1904 70.1718 49.8461 67.6519C49.7953 67.2801 49.7547 66.6754 49.7244 65.838L49.4026 43.1589C49.4157 42.9467 49.4757 42.7702 49.5827 42.6294C49.7254 42.4417 49.9 42.3337 50.1065 42.3056L57.1711 41.3433C57.3776 41.3152 57.5542 41.3753 57.7007 41.5236C57.8416 41.6307 57.9054 41.7903 57.8924 42.0025L58.1996 62.7268C58.1865 62.939 58.2082 63.2517 58.2646 63.6648C58.3888 64.5736 58.6707 65.2505 59.1103 65.6956C59.5855 66.0938 60.1949 66.2422 60.9386 66.1409C61.8475 66.0171 62.5431 65.5647 63.0255 64.7836C63.5079 64.0025 63.7499 63.0018 63.7514 61.7812L63.4696 41.2428ZM100.617 30.5651C100.604 30.7773 100.526 30.9773 100.384 31.165C100.277 31.3058 100.12 31.3903 99.9135 31.4184L87.3957 33.1235C87.1891 33.1517 87.0999 33.269 87.1281 33.4756L87.2267 43.435C87.2549 43.6415 87.3517 43.7335 87.5169 43.711L94.7054 42.7319C94.9119 42.7037 95.0885 42.7638 95.235 42.9122C95.3759 43.0193 95.4398 43.1789 95.4267 43.391L95.5045 49.503C95.4914 49.7152 95.4135 49.9152 95.2708 50.1029C95.1638 50.2437 95.007 50.3282 94.8005 50.3563L87.674 51.3271C87.4261 51.3608 87.3163 51.481 87.3445 51.6875L87.6113 68.8827C87.5982 69.0949 87.5204 69.2949 87.3777 69.4826C87.2294 69.629 87.0519 69.7163 86.8454 69.7445L79.8428 70.6983C79.6363 70.7265 79.4626 70.687 79.3217 70.58C79.1752 70.4316 79.1084 70.2513 79.1215 70.0391L78.5406 27.4498C78.5536 27.2376 78.6137 27.0611 78.7207 26.9203C78.8634 26.7325 79.038 26.6246 79.2445 26.5964L99.8184 23.794C100.025 23.7658 100.201 23.826 100.348 23.9743C100.489 24.0814 100.553 24.241 100.54 24.4532L100.617 30.5651ZM109.715 30.5252C108.475 30.6941 107.409 30.4395 106.517 29.7615C105.625 29.0835 105.097 28.1455 104.933 26.9475C104.707 25.2951 105.04 23.8822 105.932 22.7087C106.818 21.494 108.025 20.7825 109.554 20.5743C110.835 20.3998 111.898 20.6338 112.743 21.276C113.588 21.9183 114.095 22.8591 114.265 24.0985C114.479 25.6683 114.126 27.084 113.204 28.3457C112.324 29.6018 111.16 30.3283 109.715 30.5252ZM106.75 67.0332C106.544 67.0613 106.37 67.0218 106.229 66.9148C106.082 66.7664 106.016 66.5862 106.029 66.374L105.598 35.5044C105.611 35.2922 105.671 35.1157 105.778 34.9749C105.92 34.7871 106.095 34.6792 106.302 34.651L113.366 33.6887C113.573 33.6606 113.749 33.7207 113.896 33.8691C114.037 33.9761 114.1 34.1357 114.087 34.3479L114.519 65.2176C114.506 65.4297 114.428 65.6297 114.285 65.8174C114.178 65.9583 114.021 66.0427 113.815 66.0709L106.75 67.0332ZM134.609 36.2865C134.596 36.4986 134.518 36.6986 134.376 36.8864C134.269 37.0272 134.112 37.1117 133.905 37.1398L130.497 37.6041C130.414 37.6153 130.337 37.6679 130.266 37.7617C130.23 37.8087 130.218 37.8735 130.23 37.9561L130.448 52.9487C130.435 53.1609 130.454 53.4529 130.504 53.8247C130.623 54.6922 130.891 55.2659 131.308 55.5457C131.766 55.8199 132.364 55.8857 133.102 55.7431L133.536 55.684C133.742 55.6559 133.919 55.716 134.066 55.8644C134.206 55.9714 134.27 56.131 134.257 56.3432L134.343 62.5171C134.33 62.7293 134.253 62.9293 134.11 63.117C134.003 63.2578 133.846 63.3423 133.639 63.3704L131.223 63.6996C128.579 64.0598 126.521 63.9403 125.051 63.3411C123.575 62.7006 122.684 61.2649 122.379 59.0342C122.34 58.745 122.31 58.223 122.291 57.4682L122.05 39.0703C122.021 38.8638 121.925 38.7717 121.759 38.7943L119.776 39.0644C119.57 39.0925 119.396 39.053 119.255 38.946C119.109 38.7976 119.042 38.6174 119.055 38.4052L118.978 33.6818C118.991 33.4696 119.051 33.2931 119.158 33.1523C119.3 32.9646 119.475 32.8566 119.682 32.8285L121.665 32.5584C121.871 32.5302 121.96 32.4129 121.932 32.2063L121.86 25.21C121.873 24.9978 121.933 24.8213 122.04 24.6805C122.183 24.4927 122.357 24.3848 122.564 24.3566L129.318 23.4366C129.525 23.4084 129.702 23.4685 129.848 23.6169C129.989 23.7239 130.053 23.8836 130.04 24.0957L130.112 31.0921C130.14 31.2986 130.258 31.3879 130.464 31.3597L133.811 30.9039C134.017 30.8758 134.194 30.9359 134.34 31.0842C134.481 31.1913 134.545 31.3509 134.532 31.5631L134.609 36.2865Z" fill="#E78DE8"/>
<path d="M28.3612 32.5994C31.5836 32.1604 34.2571 32.7851 36.3815 34.4735C38.5002 36.1206 39.7798 38.5552 40.2201 41.7774C40.2766 42.1905 40.3312 42.8984 40.3841 43.9011L40.6205 63.1834C40.6439 66.1257 40.0146 68.7573 38.7326 71.0779C37.4919 73.393 35.7328 75.1475 33.4552 76.3414C33.2956 76.4052 33.2064 76.5225 33.1877 76.6934L33.2878 82.0449C33.2747 82.2571 33.194 82.4364 33.0457 82.5828C32.9443 82.7649 32.7904 82.8701 32.5838 82.8982L25.5193 83.8605C25.3127 83.8886 25.1362 83.8285 24.9897 83.6802C24.8488 83.5731 24.7849 83.4135 24.798 83.2013L24.7599 77.8414C24.7373 77.6762 24.6405 77.5841 24.4697 77.5653C22.509 77.075 20.873 76.0354 19.5617 74.4467C18.2918 72.8524 17.496 70.8778 17.1742 68.5231C17.05 67.6143 16.9953 66.9064 17.0102 66.3994L16.7118 47.1256C16.6469 43.2632 17.6751 40.0092 19.7964 37.3638C21.9534 34.6715 24.8083 33.0833 28.3612 32.5994ZM25.5031 66.1894C25.49 66.4015 25.506 66.6729 25.5512 67.0034C25.698 68.0774 26.0616 68.8905 26.642 69.4427C27.2638 69.9892 28.0084 70.2033 28.876 70.0851C29.9088 69.9445 30.7021 69.4366 31.2558 68.5617C31.8509 67.6811 32.1435 66.5893 32.1338 65.2862L31.8912 44.1112C31.9043 43.899 31.8883 43.6277 31.8431 43.2972C31.6963 42.2231 31.3121 41.4128 30.6903 40.8663C30.1099 40.3142 29.3652 40.1 28.4563 40.2238C27.4648 40.3589 26.6715 40.8667 26.0765 41.7473C25.4814 42.6278 25.1888 43.7197 25.1985 45.0228L25.5031 66.1894ZM60.3632 41.2428C60.3762 41.0306 60.4363 40.8541 60.5433 40.7133C60.686 40.5256 60.8606 40.4176 61.0671 40.3895L68.1316 39.4272C68.3382 39.399 68.5148 39.4592 68.6613 39.6075C68.8021 39.7146 68.866 39.8742 68.853 40.0864L69.2842 70.956C69.2711 71.1682 69.1932 71.3681 69.0505 71.5559C68.9435 71.6967 68.7867 71.7812 68.5802 71.8093L61.5157 72.7716C61.3091 72.7997 61.1354 72.7603 60.9945 72.6532C60.848 72.5049 60.7813 72.3246 60.7944 72.1124L60.7743 71.0421C60.7987 70.9126 60.7668 70.8328 60.6785 70.8027C60.5902 70.7727 60.5132 70.8252 60.4476 70.9604C59.3401 72.7103 57.5469 73.754 55.0682 74.0917C52.9199 74.3843 51.0822 74.0245 49.5552 73.0122C48.0225 71.9586 47.084 70.1718 46.7396 67.6519C46.6888 67.2801 46.6483 66.6754 46.618 65.838L46.2961 43.1589C46.3092 42.9467 46.3692 42.7702 46.4763 42.6294C46.6189 42.4417 46.7935 42.3337 47.0001 42.3056L54.0646 41.3433C54.2712 41.3152 54.4477 41.3753 54.5942 41.5236C54.7351 41.6307 54.799 41.7903 54.7859 42.0025L55.0931 62.7268C55.0801 62.939 55.1017 63.2517 55.1582 63.6648C55.2824 64.5736 55.5643 65.2505 56.0038 65.6956C56.4791 66.0938 57.0885 66.2422 57.8321 66.1409C58.741 66.0171 59.4367 65.5647 59.9191 64.7836C60.4015 64.0025 60.6434 63.0018 60.645 61.7812L60.3632 41.2428ZM97.511 30.5651C97.4979 30.7773 97.42 30.9773 97.2774 31.165C97.1704 31.3058 97.0136 31.3903 96.807 31.4184L84.2892 33.1235C84.0826 33.1517 83.9935 33.269 84.0217 33.4756L84.1203 43.435C84.1485 43.6415 84.2452 43.7335 84.4105 43.711L91.5989 42.7319C91.8055 42.7037 91.982 42.7638 92.1286 42.9122C92.2694 43.0193 92.3333 43.1789 92.3202 43.391L92.398 49.503C92.3849 49.7152 92.3071 49.9152 92.1644 50.1029C92.0574 50.2437 91.9006 50.3282 91.694 50.3563L84.5676 51.3271C84.3197 51.3608 84.2099 51.481 84.2381 51.6875L84.5049 68.8827C84.4918 69.0949 84.4139 69.2949 84.2713 69.4826C84.1229 69.629 83.9455 69.7163 83.7389 69.7445L76.7364 70.6983C76.5298 70.7265 76.3561 70.687 76.2152 70.58C76.0687 70.4316 76.002 70.2513 76.0151 70.0391L75.4341 27.4498C75.4472 27.2376 75.5072 27.0611 75.6142 26.9203C75.7569 26.7325 75.9315 26.6246 76.1381 26.5964L96.7119 23.794C96.9185 23.7658 97.095 23.826 97.2415 23.9743C97.3824 24.0814 97.4463 24.241 97.4332 24.4532L97.511 30.5651ZM106.608 30.5252C105.369 30.6941 104.303 30.4395 103.411 29.7615C102.518 29.0835 101.99 28.1455 101.827 26.9475C101.601 25.2951 101.934 23.8822 102.826 22.7087C103.712 21.494 104.919 20.7825 106.448 20.5743C107.728 20.3998 108.791 20.6338 109.636 21.276C110.482 21.9183 110.989 22.8591 111.158 24.0985C111.373 25.6683 111.019 27.084 110.098 28.3457C109.217 29.6018 108.054 30.3283 106.608 30.5252ZM103.644 67.0332C103.437 67.0613 103.263 67.0218 103.123 66.9148C102.976 66.7664 102.909 66.5862 102.922 66.374L102.491 35.5044C102.504 35.2922 102.564 35.1157 102.671 34.9749C102.814 34.7871 102.989 34.6792 103.195 34.651L110.26 33.6887C110.466 33.6606 110.643 33.7207 110.789 33.8691C110.93 33.9761 110.994 34.1357 110.981 34.3479L111.412 65.2176C111.399 65.4297 111.321 65.6297 111.179 65.8174C111.072 65.9583 110.915 66.0427 110.708 66.0709L103.644 67.0332ZM131.503 36.2865C131.49 36.4986 131.412 36.6986 131.269 36.8864C131.162 37.0272 131.005 37.1117 130.799 37.1398L127.391 37.6041C127.308 37.6153 127.231 37.6679 127.16 37.7617C127.124 37.8087 127.112 37.8735 127.123 37.9561L127.341 52.9487C127.328 53.1609 127.347 53.4529 127.398 53.8247C127.517 54.6922 127.784 55.2659 128.201 55.5457C128.66 55.8199 129.258 55.8857 129.996 55.7431L130.429 55.684C130.636 55.6559 130.813 55.716 130.959 55.8644C131.1 55.9714 131.164 56.131 131.151 56.3432L131.237 62.5171C131.224 62.7293 131.146 62.9293 131.003 63.117C130.896 63.2578 130.74 63.3423 130.533 63.3704L128.116 63.6996C125.472 64.0598 123.415 63.9403 121.944 63.3411C120.468 62.7006 119.578 61.2649 119.273 59.0342C119.233 58.745 119.204 58.223 119.185 57.4682L118.943 39.0703C118.915 38.8638 118.818 38.7717 118.653 38.7943L116.67 39.0644C116.463 39.0925 116.29 39.053 116.149 38.946C116.002 38.7976 115.936 38.6174 115.949 38.4052L115.871 33.6818C115.884 33.4696 115.944 33.2931 116.051 33.1523C116.194 32.9646 116.369 32.8566 116.575 32.8285L118.558 32.5584C118.765 32.5302 118.854 32.4129 118.826 32.2063L118.753 25.21C118.766 24.9978 118.826 24.8213 118.933 24.6805C119.076 24.4927 119.251 24.3848 119.457 24.3566L126.212 23.4366C126.419 23.4084 126.595 23.4685 126.742 23.6169C126.882 23.7239 126.946 23.8836 126.933 24.0957L127.006 31.0921C127.034 31.2986 127.151 31.3879 127.358 31.3597L130.704 30.9039C130.911 30.8758 131.087 30.9359 131.234 31.0842C131.375 31.1913 131.439 31.3509 131.426 31.5631L131.503 36.2865Z" fill="#F8DFFF"/>
<path d="M140.896 0C140.262 6.37099 139.147 8.63075 135.646 10.0466C139.124 12.4589 140.096 14.7681 140.896 19.802C142.111 14.7359 143.182 12.5256 146 10.0466C143.241 8.58006 142.165 6.23606 140.896 0Z" fill="url(#paint0_linear_184_556)"/>
<path d="M7.87534 70.297C6.92481 79.8535 5.25225 83.2431 0 85.3669C5.21706 88.9854 6.67586 92.4492 7.87534 100C9.698 92.4008 11.3053 89.0853 15.5319 85.3669C11.3937 83.1671 9.77885 79.6511 7.87534 70.297Z" fill="url(#paint1_linear_184_556)"/>
<path d="M90.5994 10.3378C90.5994 12.3329 88.9792 13.9517 86.9788 13.9517C84.9783 13.9517 83.3581 12.3329 83.3581 10.3378C83.3581 8.34263 84.9783 6.72382 86.9788 6.72382C88.9792 6.72382 90.5994 8.34263 90.5994 10.3378Z" stroke="#8EE297" stroke-width="1.04236"/>
<path d="M135.124 80.6349C135.124 82.63 133.504 84.2488 131.503 84.2488C129.503 84.2488 127.883 82.63 127.883 80.6349C127.883 78.6397 129.503 77.0209 131.503 77.0209C133.504 77.0209 135.124 78.6397 135.124 80.6349Z" stroke="#8EE297" stroke-width="1.04236"/>
<path d="M47.1102 28.4289C47.1102 29.5676 46.1854 30.4922 45.0428 30.4922C43.9001 30.4922 42.9753 29.5676 42.9753 28.4289C42.9753 27.2902 43.9001 26.3657 45.0428 26.3657C46.1854 26.3657 47.1102 27.2902 47.1102 28.4289Z" stroke="#EEDB98" stroke-width="1.04236"/>
<path d="M82.3153 87.3545C82.3153 88.4932 81.3905 89.4177 80.2478 89.4177C79.1052 89.4177 78.1804 88.4932 78.1804 87.3545C78.1804 86.2158 79.1052 85.2912 80.2478 85.2912C81.3905 85.2912 82.3153 86.2158 82.3153 87.3545Z" stroke="#EEDB98" stroke-width="1.04236"/>
<g filter="url(#filter0_df_184_556)">
<path d="M14.6689 33.4261V34.9309C14.6689 35.0224 14.7054 35.1102 14.7702 35.1749C14.835 35.2397 14.923 35.276 15.0146 35.276C15.1063 35.276 15.1943 35.2397 15.2591 35.1749C15.3239 35.1102 15.3603 35.0224 15.3603 34.9309V33.4261C15.3603 33.3345 15.3239 33.2467 15.2591 33.182C15.1943 33.1173 15.1063 33.0809 15.0146 33.0809C14.923 33.0809 14.835 33.1173 14.7702 33.182C14.7054 33.2467 14.6689 33.3345 14.6689 33.4261Z" fill="white"/>
<path d="M14.6689 37.6966V39.2014C14.6689 39.2929 14.7054 39.3807 14.7702 39.4454C14.835 39.5102 14.923 39.5465 15.0146 39.5465C15.1063 39.5465 15.1943 39.5102 15.2591 39.4454C15.3239 39.3807 15.3603 39.2929 15.3603 39.2014V37.6966C15.3603 37.605 15.3239 37.5173 15.2591 37.4525C15.1943 37.3878 15.1063 37.3514 15.0146 37.3514C14.923 37.3514 14.835 37.3878 14.7702 37.4525C14.7054 37.5173 14.6689 37.605 14.6689 37.6966Z" fill="white"/>
<path d="M14.3672 36.4551L15.1068 37.6037L15.6615 36.7423L15.1068 35.0193L14.3672 36.4551Z" fill="white" stroke="white" stroke-width="1.04236"/>
<path d="M17.2575 35.9664H15.7549C15.6632 35.9664 15.5753 36.0028 15.5104 36.0675C15.4456 36.1321 15.4092 36.2199 15.4092 36.3114C15.4092 36.4028 15.4456 36.4906 15.5104 36.5553C15.5753 36.62 15.6632 36.6563 15.7549 36.6563H17.2575C17.3492 36.6563 17.4371 36.62 17.502 36.5553C17.5668 36.4906 17.6032 36.4028 17.6032 36.3114C17.6032 36.2199 17.5668 36.1321 17.502 36.0675C17.4371 36.0028 17.3492 35.9664 17.2575 35.9664Z" fill="white"/>
<path d="M14.2787 36.6563C14.3704 36.6563 14.4584 36.62 14.5232 36.5553C14.588 36.4906 14.6244 36.4028 14.6244 36.3114C14.6244 36.2199 14.588 36.1321 14.5232 36.0675C14.4584 36.0028 14.3704 35.9664 14.2787 35.9664H12.7715C12.6798 35.9664 12.5919 36.0028 12.527 36.0675C12.4622 36.1321 12.4258 36.2199 12.4258 36.3114C12.4258 36.4028 12.4622 36.4906 12.527 36.5553C12.5919 36.62 12.6798 36.6563 12.7715 36.6563H14.2787Z" fill="white"/>
</g>
<g filter="url(#filter1_df_184_556)">
<path d="M130.298 59.524V56.5144C130.298 56.4698 130.315 56.4269 130.347 56.3951C130.379 56.3633 130.422 56.3453 130.468 56.3453C130.513 56.3453 130.557 56.3633 130.588 56.3951C130.62 56.4269 130.638 56.4698 130.638 56.5144V59.524C130.638 59.5686 130.62 59.6115 130.588 59.6433C130.557 59.6751 130.513 59.6931 130.468 59.6931C130.422 59.6931 130.379 59.6751 130.347 59.6433C130.315 59.6115 130.298 59.5686 130.298 59.524Z" fill="white" stroke="white" stroke-width="1.04236"/>
<path d="M130.298 68.065V65.0554C130.298 65.0108 130.315 64.9679 130.347 64.9361C130.379 64.9043 130.422 64.8863 130.468 64.8863C130.513 64.8863 130.557 64.9043 130.588 64.9361C130.62 64.9679 130.638 65.0108 130.638 65.0554V68.065C130.638 68.1096 130.62 68.1525 130.588 68.1843C130.557 68.2161 130.513 68.2341 130.468 68.2341C130.422 68.2341 130.379 68.2161 130.347 68.1843C130.315 68.1525 130.298 68.1096 130.298 68.065Z" fill="white" stroke="white" stroke-width="1.04236"/>
<path d="M129.174 62.5723L130.653 64.8696L131.762 63.1466L130.653 59.7007L129.174 62.5723Z" fill="white" stroke="white" stroke-width="1.04236"/>
<path d="M131.949 62.1159H134.955C135 62.1159 135.043 62.134 135.075 62.1657C135.107 62.1974 135.125 62.2402 135.125 62.2846C135.125 62.329 135.107 62.3717 135.075 62.4035C135.043 62.4352 135 62.4533 134.955 62.4533H131.949C131.904 62.4533 131.86 62.4352 131.828 62.4035C131.797 62.3717 131.779 62.329 131.779 62.2846C131.779 62.2402 131.797 62.1974 131.828 62.1657C131.86 62.134 131.904 62.1159 131.949 62.1159Z" fill="white" stroke="white" stroke-width="1.04236"/>
<path d="M129.118 62.4035C129.086 62.4352 129.042 62.4533 128.997 62.4533H125.982C125.937 62.4533 125.893 62.4352 125.862 62.4035C125.83 62.3717 125.812 62.329 125.812 62.2846C125.812 62.2402 125.83 62.1974 125.862 62.1657C125.893 62.134 125.937 62.1159 125.982 62.1159H128.997C129.042 62.1159 129.086 62.134 129.118 62.1657C129.149 62.1974 129.167 62.2402 129.167 62.2846C129.167 62.329 129.149 62.3717 129.118 62.4035Z" fill="white" stroke="white" stroke-width="1.04236"/>
</g>
<defs>
<filter id="filter0_df_184_556" x="6.17162" y="26.8268" width="26.0249" height="27.3128" filterUnits="userSpaceOnUse" color-interpolation-filters="sRGB">
<feFlood flood-opacity="0" result="BackgroundImageFix"/>
<feColorMatrix in="SourceAlpha" type="matrix" values="0 0 0 0 0 0 0 0 0 0 0 0 0 0 0 0 0 0 127 0" result="hardAlpha"/>
<feOffset dx="4.16944" dy="4.16944"/>
<feGaussianBlur stdDeviation="5.2118"/>
<feComposite in2="hardAlpha" operator="out"/>
<feColorMatrix type="matrix" values="0 0 0 0 0.898039 0 0 0 0 0.52549 0 0 0 0 0.905882 0 0 0 0.3 0"/>
<feBlend mode="normal" in2="BackgroundImageFix" result="effect1_dropShadow_184_556"/>
<feBlend mode="normal" in="SourceGraphic" in2="effect1_dropShadow_184_556" result="shape"/>
<feGaussianBlur stdDeviation="0.52118" result="effect2_foregroundBlur_184_556"/>
</filter>
<filter id="filter1_df_184_556" x="119.037" y="49.5699" width="31.2017" height="33.7783" filterUnits="userSpaceOnUse" color-interpolation-filters="sRGB">
<feFlood flood-opacity="0" result="BackgroundImageFix"/>
<feColorMatrix in="SourceAlpha" type="matrix" values="0 0 0 0 0 0 0 0 0 0 0 0 0 0 0 0 0 0 127 0" result="hardAlpha"/>
<feOffset dx="4.16944" dy="4.16944"/>
<feGaussianBlur stdDeviation="5.2118"/>
<feComposite in2="hardAlpha" operator="out"/>
<feColorMatrix type="matrix" values="0 0 0 0 0.898039 0 0 0 0 0.52549 0 0 0 0 0.905882 0 0 0 0.3 0"/>
<feBlend mode="normal" in2="BackgroundImageFix" result="effect1_dropShadow_184_556"/>
<feBlend mode="normal" in="SourceGraphic" in2="effect1_dropShadow_184_556" result="shape"/>
<feGaussianBlur stdDeviation="0.52118" result="effect2_foregroundBlur_184_556"/>
</filter>
<linearGradient id="paint0_linear_184_556" x1="138.752" y1="5.68579" x2="145.984" y2="16.0346" gradientUnits="userSpaceOnUse">
<stop stop-color="#69F977"/>
<stop offset="0.494" stop-color="#69F977"/>
<stop offset="1" stop-color="#37A441"/>
</linearGradient>
<linearGradient id="paint1_linear_184_556" x1="4.65958" y1="78.8257" x2="15.5082" y2="94.3489" gradientUnits="userSpaceOnUse">
<stop stop-color="#69F977"/>
<stop offset="0.494" stop-color="#69F977"/>
<stop offset="1" stop-color="#37A441"/>
</linearGradient>
</defs>
</svg>
