<svg width="61" height="60" viewBox="0 0 61 60" fill="none" xmlns="http://www.w3.org/2000/svg">
<path d="M10.785 46.8153H50.5869C52.9722 46.8153 54.3788 45.5848 54.3788 43.7768C54.3788 41.2656 51.8424 39.0055 49.6578 36.7706C48.0004 35.0379 47.5483 31.4721 47.3726 28.5843C47.1717 18.9414 44.6355 12.2867 37.9307 9.87604C37.0015 6.6115 34.3899 4 30.6985 4C26.982 4 24.3955 6.6115 23.4412 9.87604C16.7616 12.2867 14.2001 18.9414 14.0244 28.5843C13.8235 31.4721 13.3966 35.0379 11.7141 36.7706C9.55452 39.0055 6.99316 41.2656 6.99316 43.7768C6.99316 45.5848 8.42449 46.8153 10.785 46.8153ZM23.0394 50.2304C23.3408 53.8968 26.4295 56.9603 30.6985 56.9603C34.9423 56.9603 38.0311 53.8968 38.3575 50.2304H23.0394Z" fill="white"/>
</svg>
